<?xml version="1.0"?>
<svg xmlns="http://www.w3.org/2000/svg" xmlns:xlink="http://www.w3.org/1999/xlink" xmlns:svgjs="http://svgjs.com/svgjs" version="1.1" width="512" height="512" x="0" y="0" viewBox="0 0 24 24" style="enable-background:new 0 0 512 512" xml:space="preserve"><g><g xmlns="http://www.w3.org/2000/svg" id="_01_align_center" data-name="01 align center"><path d="M21,24H16V22h5a1,1,0,0,0,1-1V16h2v5A3,3,0,0,1,21,24Z" fill="#067fdd" data-original="#000000"/><path d="M2,8H0V3A3,3,0,0,1,3,0H8V2H3A1,1,0,0,0,2,3Z" fill="#067fdd" data-original="#000000"/><path d="M8,24H3a3,3,0,0,1-3-3V16H2v5a1,1,0,0,0,1,1H8Z" fill="#067fdd" data-original="#000000"/><path d="M24,8H22V3a1,1,0,0,0-1-1H16V0h5a3,3,0,0,1,3,3Z" fill="#067fdd" data-original="#000000"/><path d="M18.293,19.707,9.707,11.121a1,1,0,0,0-1.414,0L4.707,14.707,3.293,13.293,6.879,9.707a3,3,0,0,1,4.242,0l8.586,8.586Z" fill="#067fdd" data-original="#000000"/><path d="M16,10a3,3,0,1,1,3-3A3,3,0,0,1,16,10Zm0-4a1,1,0,1,0,1,1A1,1,0,0,0,16,6Z" fill="#067fdd" data-original="#000000"/></g></g></svg>
